ply
format ascii 1.0
element vertex 1000
property float x
property float y
property float z
end_header
-1 -1 -1
-1 -1 -0.7777778
-1 -1 -0.5555556
-1 -1 -0.3333333
-1 -1 -0.1111111
-1 -1 0.1111111
-1 -1 0.3333333
-1 -1 0.5555556
-1 -1 0.7777778
-1 -1 1
-0.7777778 -1 -1
-0.7777778 -1 -0.7777778
-0.7777778 -1 -0.5555556
-0.7777778 -1 -0.3333333
-0.7777778 -1 -0.1111111
-0.7777778 -1 0.1111111
-0.7777778 -1 0.3333333
-0.7777778 -1 0.5555556
-0.7777778 -1 0.7777778
-0.7777778 -1 1
-0.5555556 -1 -1
-0.5555556 -1 -0.7777778
-0.5555556 -1 -0.5555556
-0.5555556 -1 -0.3333333
-0.5555556 -1 -0.1111111
-0.5555556 -1 0.1111111
-0.5555556 -1 0.3333333
-0.5555556 -1 0.5555556
-0.5555556 -1 0.7777778
-0.5555556 -1 1
-0.3333333 -1 -1
-0.3333333 -1 -0.7777778
-0.3333333 -1 -0.5555556
-0.3333333 -1 -0.3333333
-0.3333333 -1 -0.1111111
-0.3333333 -1 0.1111111
-0.3333333 -1 0.3333333
-0.3333333 -1 0.5555556
-0.3333333 -1 0.7777778
-0.3333333 -1 1
-0.1111111 -1 -1
-0.1111111 -1 -0.7777778
-0.1111111 -1 -0.5555556
-0.1111111 -1 -0.3333333
-0.1111111 -1 -0.1111111
-0.1111111 -1 0.1111111
-0.1111111 -1 0.3333333
-0.1111111 -1 0.5555556
-0.1111111 -1 0.7777778
-0.1111111 -1 1
0.1111111 -1 -1
0.1111111 -1 -0.7777778
0.1111111 -1 -0.5555556
0.1111111 -1 -0.3333333
0.1111111 -1 -0.1111111
0.1111111 -1 0.1111111
0.1111111 -1 0.3333333
0.1111111 -1 0.5555556
0.1111111 -1 0.7777778
0.1111111 -1 1
0.3333333 -1 -1
0.3333333 -1 -0.7777778
0.3333333 -1 -0.5555556
0.3333333 -1 -0.3333333
0.3333333 -1 -0.1111111
0.3333333 -1 0.1111111
0.3333333 -1 0.3333333
0.3333333 -1 0.5555556
0.3333333 -1 0.7777778
0.3333333 -1 1
0.5555556 -1 -1
0.5555556 -1 -0.7777778
0.5555556 -1 -0.5555556
0.5555556 -1 -0.3333333
0.5555556 -1 -0.1111111
0.5555556 -1 0.1111111
0.5555556 -1 0.3333333
0.5555556 -1 0.5555556
0.5555556 -1 0.7777778
0.5555556 -1 1
0.7777778 -1 -1
0.7777778 -1 -0.7777778
0.7777778 -1 -0.5555556
0.7777778 -1 -0.3333333
0.7777778 -1 -0.1111111
0.7777778 -1 0.1111111
0.7777778 -1 0.3333333
0.7777778 -1 0.5555556
0.7777778 -1 0.7777778
0.7777778 -1 1
1 -1 -1
1 -1 -0.7777778
1 -1 -0.5555556
1 -1 -0.3333333
1 -1 -0.1111111
1 -1 0.1111111
1 -1 0.3333333
1 -1 0.5555556
1 -1 0.7777778
1 -1 1
-1 -0.7777778 -1
-1 -0.7777778 -0.7777778
-1 -0.7777778 -0.5555556
-1 -0.7777778 -0.3333333
-1 -0.7777778 -0.1111111
-1 -0.7777778 0.1111111
-1 -0.7777778 0.3333333
-1 -0.7777778 0.5555556
-1 -0.7777778 0.7777778
-1 -0.7777778 1
-0.7777778 -0.7777778 -1
-0.7777778 -0.7777778 -0.7777778
-0.7777778 -0.7777778 -0.5555556
-0.7777778 -0.7777778 -0.3333333
-0.7777778 -0.7777778 -0.1111111
-0.7777778 -0.7777778 0.1111111
-0.7777778 -0.7777778 0.3333333
-0.7777778 -0.7777778 0.5555556
-0.7777778 -0.7777778 0.7777778
-0.7777778 -0.7777778 1
-0.5555556 -0.7777778 -1
-0.5555556 -0.7777778 -0.7777778
-0.5555556 -0.7777778 -0.5555556
-0.5555556 -0.7777778 -0.3333333
-0.5555556 -0.7777778 -0.1111111
-0.5555556 -0.7777778 0.1111111
-0.5555556 -0.7777778 0.3333333
-0.5555556 -0.7777778 0.5555556
-0.5555556 -0.7777778 0.7777778
-0.5555556 -0.7777778 1
-0.3333333 -0.7777778 -1
-0.3333333 -0.7777778 -0.7777778
-0.3333333 -0.7777778 -0.5555556
-0.3333333 -0.7777778 -0.3333333
-0.3333333 -0.7777778 -0.1111111
-0.3333333 -0.7777778 0.1111111
-0.3333333 -0.7777778 0.3333333
-0.3333333 -0.7777778 0.5555556
-0.3333333 -0.7777778 0.7777778
-0.3333333 -0.7777778 1
-0.1111111 -0.7777778 -1
-0.1111111 -0.7777778 -0.7777778
-0.1111111 -0.7777778 -0.5555556
-0.1111111 -0.7777778 -0.3333333
-0.1111111 -0.7777778 -0.1111111
-0.1111111 -0.7777778 0.1111111
-0.1111111 -0.7777778 0.3333333
-0.1111111 -0.7777778 0.5555556
-0.1111111 -0.7777778 0.7777778
-0.1111111 -0.7777778 1
0.1111111 -0.7777778 -1
0.1111111 -0.7777778 -0.7777778
0.1111111 -0.7777778 -0.5555556
0.1111111 -0.7777778 -0.3333333
0.1111111 -0.7777778 -0.1111111
0.1111111 -0.7777778 0.1111111
0.1111111 -0.7777778 0.3333333
0.1111111 -0.7777778 0.5555556
0.1111111 -0.7777778 0.7777778
0.1111111 -0.7777778 1
0.3333333 -0.7777778 -1
0.3333333 -0.7777778 -0.7777778
0.3333333 -0.7777778 -0.5555556
0.3333333 -0.7777778 -0.3333333
0.3333333 -0.7777778 -0.1111111
0.3333333 -0.7777778 0.1111111
0.3333333 -0.7777778 0.3333333
0.3333333 -0.7777778 0.5555556
0.3333333 -0.7777778 0.7777778
0.3333333 -0.7777778 1
0.5555556 -0.7777778 -1
0.5555556 -0.7777778 -0.7777778
0.5555556 -0.7777778 -0.5555556
0.5555556 -0.7777778 -0.3333333
0.5555556 -0.7777778 -0.1111111
0.5555556 -0.7777778 0.1111111
0.5555556 -0.7777778 0.3333333
0.5555556 -0.7777778 0.5555556
0.5555556 -0.7777778 0.7777778
0.5555556 -0.7777778 1
0.7777778 -0.7777778 -1
0.7777778 -0.7777778 -0.7777778
0.7777778 -0.7777778 -0.5555556
0.7777778 -0.7777778 -0.3333333
0.7777778 -0.7777778 -0.1111111
0.7777778 -0.7777778 0.1111111
0.7777778 -0.7777778 0.3333333
0.7777778 -0.7777778 0.5555556
0.7777778 -0.7777778 0.7777778
0.7777778 -0.7777778 1
1 -0.7777778 -1
1 -0.7777778 -0.7777778
1 -0.7777778 -0.5555556
1 -0.7777778 -0.3333333
1 -0.7777778 -0.1111111
1 -0.7777778 0.1111111
1 -0.7777778 0.3333333
1 -0.7777778 0.5555556
1 -0.7777778 0.7777778
1 -0.7777778 1
-1 -0.5555556 -1
-1 -0.5555556 -0.7777778
-1 -0.5555556 -0.5555556
-1 -0.5555556 -0.3333333
-1 -0.5555556 -0.1111111
-1 -0.5555556 0.1111111
-1 -0.5555556 0.3333333
-1 -0.5555556 0.5555556
-1 -0.5555556 0.7777778
-1 -0.5555556 1
-0.7777778 -0.5555556 -1
-0.7777778 -0.5555556 -0.7777778
-0.7777778 -0.5555556 -0.5555556
-0.7777778 -0.5555556 -0.3333333
-0.7777778 -0.5555556 -0.1111111
-0.7777778 -0.5555556 0.1111111
-0.7777778 -0.5555556 0.3333333
-0.7777778 -0.5555556 0.5555556
-0.7777778 -0.5555556 0.7777778
-0.7777778 -0.5555556 1
-0.5555556 -0.5555556 -1
-0.5555556 -0.5555556 -0.7777778
-0.5555556 -0.5555556 -0.5555556
-0.5555556 -0.5555556 -0.3333333
-0.5555556 -0.5555556 -0.1111111
-0.5555556 -0.5555556 0.1111111
-0.5555556 -0.5555556 0.3333333
-0.5555556 -0.5555556 0.5555556
-0.5555556 -0.5555556 0.7777778
-0.5555556 -0.5555556 1
-0.3333333 -0.5555556 -1
-0.3333333 -0.5555556 -0.7777778
-0.3333333 -0.5555556 -0.5555556
-0.3333333 -0.5555556 -0.3333333
-0.3333333 -0.5555556 -0.1111111
-0.3333333 -0.5555556 0.1111111
-0.3333333 -0.5555556 0.3333333
-0.3333333 -0.5555556 0.5555556
-0.3333333 -0.5555556 0.7777778
-0.3333333 -0.5555556 1
-0.1111111 -0.5555556 -1
-0.1111111 -0.5555556 -0.7777778
-0.1111111 -0.5555556 -0.5555556
-0.1111111 -0.5555556 -0.3333333
-0.1111111 -0.5555556 -0.1111111
-0.1111111 -0.5555556 0.1111111
-0.1111111 -0.5555556 0.3333333
-0.1111111 -0.5555556 0.5555556
-0.1111111 -0.5555556 0.7777778
-0.1111111 -0.5555556 1
0.1111111 -0.5555556 -1
0.1111111 -0.5555556 -0.7777778
0.1111111 -0.5555556 -0.5555556
0.1111111 -0.5555556 -0.3333333
0.1111111 -0.5555556 -0.1111111
0.1111111 -0.5555556 0.1111111
0.1111111 -0.5555556 0.3333333
0.1111111 -0.5555556 0.5555556
0.1111111 -0.5555556 0.7777778
0.1111111 -0.5555556 1
0.3333333 -0.5555556 -1
0.3333333 -0.5555556 -0.7777778
0.3333333 -0.5555556 -0.5555556
0.3333333 -0.5555556 -0.3333333
0.3333333 -0.5555556 -0.1111111
0.3333333 -0.5555556 0.1111111
0.3333333 -0.5555556 0.3333333
0.3333333 -0.5555556 0.5555556
0.3333333 -0.5555556 0.7777778
0.3333333 -0.5555556 1
0.5555556 -0.5555556 -1
0.5555556 -0.5555556 -0.7777778
0.5555556 -0.5555556 -0.5555556
0.5555556 -0.5555556 -0.3333333
0.5555556 -0.5555556 -0.1111111
0.5555556 -0.5555556 0.1111111
0.5555556 -0.5555556 0.3333333
0.5555556 -0.5555556 0.5555556
0.5555556 -0.5555556 0.7777778
0.5555556 -0.5555556 1
0.7777778 -0.5555556 -1
0.7777778 -0.5555556 -0.7777778
0.7777778 -0.5555556 -0.5555556
0.7777778 -0.5555556 -0.3333333
0.7777778 -0.5555556 -0.1111111
0.7777778 -0.5555556 0.1111111
0.7777778 -0.5555556 0.3333333
0.7777778 -0.5555556 0.5555556
0.7777778 -0.5555556 0.7777778
0.7777778 -0.5555556 1
1 -0.5555556 -1
1 -0.5555556 -0.7777778
1 -0.5555556 -0.5555556
1 -0.5555556 -0.3333333
1 -0.5555556 -0.1111111
1 -0.5555556 0.1111111
1 -0.5555556 0.3333333
1 -0.5555556 0.5555556
1 -0.5555556 0.7777778
1 -0.5555556 1
-1 -0.3333333 -1
-1 -0.3333333 -0.7777778
-1 -0.3333333 -0.5555556
-1 -0.3333333 -0.3333333
-1 -0.3333333 -0.1111111
-1 -0.3333333 0.1111111
-1 -0.3333333 0.3333333
-1 -0.3333333 0.5555556
-1 -0.3333333 0.7777778
-1 -0.3333333 1
-0.7777778 -0.3333333 -1
-0.7777778 -0.3333333 -0.7777778
-0.7777778 -0.3333333 -0.5555556
-0.7777778 -0.3333333 -0.3333333
-0.7777778 -0.3333333 -0.1111111
-0.7777778 -0.3333333 0.1111111
-0.7777778 -0.3333333 0.3333333
-0.7777778 -0.3333333 0.5555556
-0.7777778 -0.3333333 0.7777778
-0.7777778 -0.3333333 1
-0.5555556 -0.3333333 -1
-0.5555556 -0.3333333 -0.7777778
-0.5555556 -0.3333333 -0.5555556
-0.5555556 -0.3333333 -0.3333333
-0.5555556 -0.3333333 -0.1111111
-0.5555556 -0.3333333 0.1111111
-0.5555556 -0.3333333 0.3333333
-0.5555556 -0.3333333 0.5555556
-0.5555556 -0.3333333 0.7777778
-0.5555556 -0.3333333 1
-0.3333333 -0.3333333 -1
-0.3333333 -0.3333333 -0.7777778
-0.3333333 -0.3333333 -0.5555556
-0.3333333 -0.3333333 -0.3333333
-0.3333333 -0.3333333 -0.1111111
-0.3333333 -0.3333333 0.1111111
-0.3333333 -0.3333333 0.3333333
-0.3333333 -0.3333333 0.5555556
-0.3333333 -0.3333333 0.7777778
-0.3333333 -0.3333333 1
-0.1111111 -0.3333333 -1
-0.1111111 -0.3333333 -0.7777778
-0.1111111 -0.3333333 -0.5555556
-0.1111111 -0.3333333 -0.3333333
-0.1111111 -0.3333333 -0.1111111
-0.1111111 -0.3333333 0.1111111
-0.1111111 -0.3333333 0.3333333
-0.1111111 -0.3333333 0.5555556
-0.1111111 -0.3333333 0.7777778
-0.1111111 -0.3333333 1
0.1111111 -0.3333333 -1
0.1111111 -0.3333333 -0.7777778
0.1111111 -0.3333333 -0.5555556
0.1111111 -0.3333333 -0.3333333
0.1111111 -0.3333333 -0.1111111
0.1111111 -0.3333333 0.1111111
0.1111111 -0.3333333 0.3333333
0.1111111 -0.3333333 0.5555556
0.1111111 -0.3333333 0.7777778
0.1111111 -0.3333333 1
0.3333333 -0.3333333 -1
0.3333333 -0.3333333 -0.7777778
0.3333333 -0.3333333 -0.5555556
0.3333333 -0.3333333 -0.3333333
0.3333333 -0.3333333 -0.1111111
0.3333333 -0.3333333 0.1111111
0.3333333 -0.3333333 0.3333333
0.3333333 -0.3333333 0.5555556
0.3333333 -0.3333333 0.7777778
0.3333333 -0.3333333 1
0.5555556 -0.3333333 -1
0.5555556 -0.3333333 -0.7777778
0.5555556 -0.3333333 -0.5555556
0.5555556 -0.3333333 -0.3333333
0.5555556 -0.3333333 -0.1111111
0.5555556 -0.3333333 0.1111111
0.5555556 -0.3333333 0.3333333
0.5555556 -0.3333333 0.5555556
0.5555556 -0.3333333 0.7777778
0.5555556 -0.3333333 1
0.7777778 -0.3333333 -1
0.7777778 -0.3333333 -0.7777778
0.7777778 -0.3333333 -0.5555556
0.7777778 -0.3333333 -0.3333333
0.7777778 -0.3333333 -0.1111111
0.7777778 -0.3333333 0.1111111
0.7777778 -0.3333333 0.3333333
0.7777778 -0.3333333 0.5555556
0.7777778 -0.3333333 0.7777778
0.7777778 -0.3333333 1
1 -0.3333333 -1
1 -0.3333333 -0.7777778
1 -0.3333333 -0.5555556
1 -0.3333333 -0.3333333
1 -0.3333333 -0.1111111
1 -0.3333333 0.1111111
1 -0.3333333 0.3333333
1 -0.3333333 0.5555556
1 -0.3333333 0.7777778
1 -0.3333333 1
-1 -0.1111111 -1
-1 -0.1111111 -0.7777778
-1 -0.1111111 -0.5555556
-1 -0.1111111 -0.3333333
-1 -0.1111111 -0.1111111
-1 -0.1111111 0.1111111
-1 -0.1111111 0.3333333
-1 -0.1111111 0.5555556
-1 -0.1111111 0.7777778
-1 -0.1111111 1
-0.7777778 -0.1111111 -1
-0.7777778 -0.1111111 -0.7777778
-0.7777778 -0.1111111 -0.5555556
-0.7777778 -0.1111111 -0.3333333
-0.7777778 -0.1111111 -0.1111111
-0.7777778 -0.1111111 0.1111111
-0.7777778 -0.1111111 0.3333333
-0.7777778 -0.1111111 0.5555556
-0.7777778 -0.1111111 0.7777778
-0.7777778 -0.1111111 1
-0.5555556 -0.1111111 -1
-0.5555556 -0.1111111 -0.7777778
-0.5555556 -0.1111111 -0.5555556
-0.5555556 -0.1111111 -0.3333333
-0.5555556 -0.1111111 -0.1111111
-0.5555556 -0.1111111 0.1111111
-0.5555556 -0.1111111 0.3333333
-0.5555556 -0.1111111 0.5555556
-0.5555556 -0.1111111 0.7777778
-0.5555556 -0.1111111 1
-0.3333333 -0.1111111 -1
-0.3333333 -0.1111111 -0.7777778
-0.3333333 -0.1111111 -0.5555556
-0.3333333 -0.1111111 -0.3333333
-0.3333333 -0.1111111 -0.1111111
-0.3333333 -0.1111111 0.1111111
-0.3333333 -0.1111111 0.3333333
-0.3333333 -0.1111111 0.5555556
-0.3333333 -0.1111111 0.7777778
-0.3333333 -0.1111111 1
-0.1111111 -0.1111111 -1
-0.1111111 -0.1111111 -0.7777778
-0.1111111 -0.1111111 -0.5555556
-0.1111111 -0.1111111 -0.3333333
-0.1111111 -0.1111111 -0.1111111
-0.1111111 -0.1111111 0.1111111
-0.1111111 -0.1111111 0.3333333
-0.1111111 -0.1111111 0.5555556
-0.1111111 -0.1111111 0.7777778
-0.1111111 -0.1111111 1
0.1111111 -0.1111111 -1
0.1111111 -0.1111111 -0.7777778
0.1111111 -0.1111111 -0.5555556
0.1111111 -0.1111111 -0.3333333
0.1111111 -0.1111111 -0.1111111
0.1111111 -0.1111111 0.1111111
0.1111111 -0.1111111 0.3333333
0.1111111 -0.1111111 0.5555556
0.1111111 -0.1111111 0.7777778
0.1111111 -0.1111111 1
0.3333333 -0.1111111 -1
0.3333333 -0.1111111 -0.7777778
0.3333333 -0.1111111 -0.5555556
0.3333333 -0.1111111 -0.3333333
0.3333333 -0.1111111 -0.1111111
0.3333333 -0.1111111 0.1111111
0.3333333 -0.1111111 0.3333333
0.3333333 -0.1111111 0.5555556
0.3333333 -0.1111111 0.7777778
0.3333333 -0.1111111 1
0.5555556 -0.1111111 -1
0.5555556 -0.1111111 -0.7777778
0.5555556 -0.1111111 -0.5555556
0.5555556 -0.1111111 -0.3333333
0.5555556 -0.1111111 -0.1111111
0.5555556 -0.1111111 0.1111111
0.5555556 -0.1111111 0.3333333
0.5555556 -0.1111111 0.5555556
0.5555556 -0.1111111 0.7777778
0.5555556 -0.1111111 1
0.7777778 -0.1111111 -1
0.7777778 -0.1111111 -0.7777778
0.7777778 -0.1111111 -0.5555556
0.7777778 -0.1111111 -0.3333333
0.7777778 -0.1111111 -0.1111111
0.7777778 -0.1111111 0.1111111
0.7777778 -0.1111111 0.3333333
0.7777778 -0.1111111 0.5555556
0.7777778 -0.1111111 0.7777778
0.7777778 -0.1111111 1
1 -0.1111111 -1
1 -0.1111111 -0.7777778
1 -0.1111111 -0.5555556
1 -0.1111111 -0.3333333
1 -0.1111111 -0.1111111
1 -0.1111111 0.1111111
1 -0.1111111 0.3333333
1 -0.1111111 0.5555556
1 -0.1111111 0.7777778
1 -0.1111111 1
-1 0.1111111 -1
-1 0.1111111 -0.7777778
-1 0.1111111 -0.5555556
-1 0.1111111 -0.3333333
-1 0.1111111 -0.1111111
-1 0.1111111 0.1111111
-1 0.1111111 0.3333333
-1 0.1111111 0.5555556
-1 0.1111111 0.7777778
-1 0.1111111 1
-0.7777778 0.1111111 -1
-0.7777778 0.1111111 -0.7777778
-0.7777778 0.1111111 -0.5555556
-0.7777778 0.1111111 -0.3333333
-0.7777778 0.1111111 -0.1111111
-0.7777778 0.1111111 0.1111111
-0.7777778 0.1111111 0.3333333
-0.7777778 0.1111111 0.5555556
-0.7777778 0.1111111 0.7777778
-0.7777778 0.1111111 1
-0.5555556 0.1111111 -1
-0.5555556 0.1111111 -0.7777778
-0.5555556 0.1111111 -0.5555556
-0.5555556 0.1111111 -0.3333333
-0.5555556 0.1111111 -0.1111111
-0.5555556 0.1111111 0.1111111
-0.5555556 0.1111111 0.3333333
-0.5555556 0.1111111 0.5555556
-0.5555556 0.1111111 0.7777778
-0.5555556 0.1111111 1
-0.3333333 0.1111111 -1
-0.3333333 0.1111111 -0.7777778
-0.3333333 0.1111111 -0.5555556
-0.3333333 0.1111111 -0.3333333
-0.3333333 0.1111111 -0.1111111
-0.3333333 0.1111111 0.1111111
-0.3333333 0.1111111 0.3333333
-0.3333333 0.1111111 0.5555556
-0.3333333 0.1111111 0.7777778
-0.3333333 0.1111111 1
-0.1111111 0.1111111 -1
-0.1111111 0.1111111 -0.7777778
-0.1111111 0.1111111 -0.5555556
-0.1111111 0.1111111 -0.3333333
-0.1111111 0.1111111 -0.1111111
-0.1111111 0.1111111 0.1111111
-0.1111111 0.1111111 0.3333333
-0.1111111 0.1111111 0.5555556
-0.1111111 0.1111111 0.7777778
-0.1111111 0.1111111 1
0.1111111 0.1111111 -1
0.1111111 0.1111111 -0.7777778
0.1111111 0.1111111 -0.5555556
0.1111111 0.1111111 -0.3333333
0.1111111 0.1111111 -0.1111111
0.1111111 0.1111111 0.1111111
0.1111111 0.1111111 0.3333333
0.1111111 0.1111111 0.5555556
0.1111111 0.1111111 0.7777778
0.1111111 0.1111111 1
0.3333333 0.1111111 -1
0.3333333 0.1111111 -0.7777778
0.3333333 0.1111111 -0.5555556
0.3333333 0.1111111 -0.3333333
0.3333333 0.1111111 -0.1111111
0.3333333 0.1111111 0.1111111
0.3333333 0.1111111 0.3333333
0.3333333 0.1111111 0.5555556
0.3333333 0.1111111 0.7777778
0.3333333 0.1111111 1
0.5555556 0.1111111 -1
0.5555556 0.1111111 -0.7777778
0.5555556 0.1111111 -0.5555556
0.5555556 0.1111111 -0.3333333
0.5555556 0.1111111 -0.1111111
0.5555556 0.1111111 0.1111111
0.5555556 0.1111111 0.3333333
0.5555556 0.1111111 0.5555556
0.5555556 0.1111111 0.7777778
0.5555556 0.1111111 1
0.7777778 0.1111111 -1
0.7777778 0.1111111 -0.7777778
0.7777778 0.1111111 -0.5555556
0.7777778 0.1111111 -0.3333333
0.7777778 0.1111111 -0.1111111
0.7777778 0.1111111 0.1111111
0.7777778 0.1111111 0.3333333
0.7777778 0.1111111 0.5555556
0.7777778 0.1111111 0.7777778
0.7777778 0.1111111 1
1 0.1111111 -1
1 0.1111111 -0.7777778
1 0.1111111 -0.5555556
1 0.1111111 -0.3333333
1 0.1111111 -0.1111111
1 0.1111111 0.1111111
1 0.1111111 0.3333333
1 0.1111111 0.5555556
1 0.1111111 0.7777778
1 0.1111111 1
-1 0.3333333 -1
-1 0.3333333 -0.7777778
-1 0.3333333 -0.5555556
-1 0.3333333 -0.3333333
-1 0.3333333 -0.1111111
-1 0.3333333 0.1111111
-1 0.3333333 0.3333333
-1 0.3333333 0.5555556
-1 0.3333333 0.7777778
-1 0.3333333 1
-0.7777778 0.3333333 -1
-0.7777778 0.3333333 -0.7777778
-0.7777778 0.3333333 -0.5555556
-0.7777778 0.3333333 -0.3333333
-0.7777778 0.3333333 -0.1111111
-0.7777778 0.3333333 0.1111111
-0.7777778 0.3333333 0.3333333
-0.7777778 0.3333333 0.5555556
-0.7777778 0.3333333 0.7777778
-0.7777778 0.3333333 1
-0.5555556 0.3333333 -1
-0.5555556 0.3333333 -0.7777778
-0.5555556 0.3333333 -0.5555556
-0.5555556 0.3333333 -0.3333333
-0.5555556 0.3333333 -0.1111111
-0.5555556 0.3333333 0.1111111
-0.5555556 0.3333333 0.3333333
-0.5555556 0.3333333 0.5555556
-0.5555556 0.3333333 0.7777778
-0.5555556 0.3333333 1
-0.3333333 0.3333333 -1
-0.3333333 0.3333333 -0.7777778
-0.3333333 0.3333333 -0.5555556
-0.3333333 0.3333333 -0.3333333
-0.3333333 0.3333333 -0.1111111
-0.3333333 0.3333333 0.1111111
-0.3333333 0.3333333 0.3333333
-0.3333333 0.3333333 0.5555556
-0.3333333 0.3333333 0.7777778
-0.3333333 0.3333333 1
-0.1111111 0.3333333 -1
-0.1111111 0.3333333 -0.7777778
-0.1111111 0.3333333 -0.5555556
-0.1111111 0.3333333 -0.3333333
-0.1111111 0.3333333 -0.1111111
-0.1111111 0.3333333 0.1111111
-0.1111111 0.3333333 0.3333333
-0.1111111 0.3333333 0.5555556
-0.1111111 0.3333333 0.7777778
-0.1111111 0.3333333 1
0.1111111 0.3333333 -1
0.1111111 0.3333333 -0.7777778
0.1111111 0.3333333 -0.5555556
0.1111111 0.3333333 -0.3333333
0.1111111 0.3333333 -0.1111111
0.1111111 0.3333333 0.1111111
0.1111111 0.3333333 0.3333333
0.1111111 0.3333333 0.5555556
0.1111111 0.3333333 0.7777778
0.1111111 0.3333333 1
0.3333333 0.3333333 -1
0.3333333 0.3333333 -0.7777778
0.3333333 0.3333333 -0.5555556
0.3333333 0.3333333 -0.3333333
0.3333333 0.3333333 -0.1111111
0.3333333 0.3333333 0.1111111
0.3333333 0.3333333 0.3333333
0.3333333 0.3333333 0.5555556
0.3333333 0.3333333 0.7777778
0.3333333 0.3333333 1
0.5555556 0.3333333 -1
0.5555556 0.3333333 -0.7777778
0.5555556 0.3333333 -0.5555556
0.5555556 0.3333333 -0.3333333
0.5555556 0.3333333 -0.1111111
0.5555556 0.3333333 0.1111111
0.5555556 0.3333333 0.3333333
0.5555556 0.3333333 0.5555556
0.5555556 0.3333333 0.7777778
0.5555556 0.3333333 1
0.7777778 0.3333333 -1
0.7777778 0.3333333 -0.7777778
0.7777778 0.3333333 -0.5555556
0.7777778 0.3333333 -0.3333333
0.7777778 0.3333333 -0.1111111
0.7777778 0.3333333 0.1111111
0.7777778 0.3333333 0.3333333
0.7777778 0.3333333 0.5555556
0.7777778 0.3333333 0.7777778
0.7777778 0.3333333 1
1 0.3333333 -1
1 0.3333333 -0.7777778
1 0.3333333 -0.5555556
1 0.3333333 -0.3333333
1 0.3333333 -0.1111111
1 0.3333333 0.1111111
1 0.3333333 0.3333333
1 0.3333333 0.5555556
1 0.3333333 0.7777778
1 0.3333333 1
-1 0.5555556 -1
-1 0.5555556 -0.7777778
-1 0.5555556 -0.5555556
-1 0.5555556 -0.3333333
-1 0.5555556 -0.1111111
-1 0.5555556 0.1111111
-1 0.5555556 0.3333333
-1 0.5555556 0.5555556
-1 0.5555556 0.7777778
-1 0.5555556 1
-0.7777778 0.5555556 -1
-0.7777778 0.5555556 -0.7777778
-0.7777778 0.5555556 -0.5555556
-0.7777778 0.5555556 -0.3333333
-0.7777778 0.5555556 -0.1111111
-0.7777778 0.5555556 0.1111111
-0.7777778 0.5555556 0.3333333
-0.7777778 0.5555556 0.5555556
-0.7777778 0.5555556 0.7777778
-0.7777778 0.5555556 1
-0.5555556 0.5555556 -1
-0.5555556 0.5555556 -0.7777778
-0.5555556 0.5555556 -0.5555556
-0.5555556 0.5555556 -0.3333333
-0.5555556 0.5555556 -0.1111111
-0.5555556 0.5555556 0.1111111
-0.5555556 0.5555556 0.3333333
-0.5555556 0.5555556 0.5555556
-0.5555556 0.5555556 0.7777778
-0.5555556 0.5555556 1
-0.3333333 0.5555556 -1
-0.3333333 0.5555556 -0.7777778
-0.3333333 0.5555556 -0.5555556
-0.3333333 0.5555556 -0.3333333
-0.3333333 0.5555556 -0.1111111
-0.3333333 0.5555556 0.1111111
-0.3333333 0.5555556 0.3333333
-0.3333333 0.5555556 0.5555556
-0.3333333 0.5555556 0.7777778
-0.3333333 0.5555556 1
-0.1111111 0.5555556 -1
-0.1111111 0.5555556 -0.7777778
-0.1111111 0.5555556 -0.5555556
-0.1111111 0.5555556 -0.3333333
-0.1111111 0.5555556 -0.1111111
-0.1111111 0.5555556 0.1111111
-0.1111111 0.5555556 0.3333333
-0.1111111 0.5555556 0.5555556
-0.1111111 0.5555556 0.7777778
-0.1111111 0.5555556 1
0.1111111 0.5555556 -1
0.1111111 0.5555556 -0.7777778
0.1111111 0.5555556 -0.5555556
0.1111111 0.5555556 -0.3333333
0.1111111 0.5555556 -0.1111111
0.1111111 0.5555556 0.1111111
0.1111111 0.5555556 0.3333333
0.1111111 0.5555556 0.5555556
0.1111111 0.5555556 0.7777778
0.1111111 0.5555556 1
0.3333333 0.5555556 -1
0.3333333 0.5555556 -0.7777778
0.3333333 0.5555556 -0.5555556
0.3333333 0.5555556 -0.3333333
0.3333333 0.5555556 -0.1111111
0.3333333 0.5555556 0.1111111
0.3333333 0.5555556 0.3333333
0.3333333 0.5555556 0.5555556
0.3333333 0.5555556 0.7777778
0.3333333 0.5555556 1
0.5555556 0.5555556 -1
0.5555556 0.5555556 -0.7777778
0.5555556 0.5555556 -0.5555556
0.5555556 0.5555556 -0.3333333
0.5555556 0.5555556 -0.1111111
0.5555556 0.5555556 0.1111111
0.5555556 0.5555556 0.3333333
0.5555556 0.5555556 0.5555556
0.5555556 0.5555556 0.7777778
0.5555556 0.5555556 1
0.7777778 0.5555556 -1
0.7777778 0.5555556 -0.7777778
0.7777778 0.5555556 -0.5555556
0.7777778 0.5555556 -0.3333333
0.7777778 0.5555556 -0.1111111
0.7777778 0.5555556 0.1111111
0.7777778 0.5555556 0.3333333
0.7777778 0.5555556 0.5555556
0.7777778 0.5555556 0.7777778
0.7777778 0.5555556 1
1 0.5555556 -1
1 0.5555556 -0.7777778
1 0.5555556 -0.5555556
1 0.5555556 -0.3333333
1 0.5555556 -0.1111111
1 0.5555556 0.1111111
1 0.5555556 0.3333333
1 0.5555556 0.5555556
1 0.5555556 0.7777778
1 0.5555556 1
-1 0.7777778 -1
-1 0.7777778 -0.7777778
-1 0.7777778 -0.5555556
-1 0.7777778 -0.3333333
-1 0.7777778 -0.1111111
-1 0.7777778 0.1111111
-1 0.7777778 0.3333333
-1 0.7777778 0.5555556
-1 0.7777778 0.7777778
-1 0.7777778 1
-0.7777778 0.7777778 -1
-0.7777778 0.7777778 -0.7777778
-0.7777778 0.7777778 -0.5555556
-0.7777778 0.7777778 -0.3333333
-0.7777778 0.7777778 -0.1111111
-0.7777778 0.7777778 0.1111111
-0.7777778 0.7777778 0.3333333
-0.7777778 0.7777778 0.5555556
-0.7777778 0.7777778 0.7777778
-0.7777778 0.7777778 1
-0.5555556 0.7777778 -1
-0.5555556 0.7777778 -0.7777778
-0.5555556 0.7777778 -0.5555556
-0.5555556 0.7777778 -0.3333333
-0.5555556 0.7777778 -0.1111111
-0.5555556 0.7777778 0.1111111
-0.5555556 0.7777778 0.3333333
-0.5555556 0.7777778 0.5555556
-0.5555556 0.7777778 0.7777778
-0.5555556 0.7777778 1
-0.3333333 0.7777778 -1
-0.3333333 0.7777778 -0.7777778
-0.3333333 0.7777778 -0.5555556
-0.3333333 0.7777778 -0.3333333
-0.3333333 0.7777778 -0.1111111
-0.3333333 0.7777778 0.1111111
-0.3333333 0.7777778 0.3333333
-0.3333333 0.7777778 0.5555556
-0.3333333 0.7777778 0.7777778
-0.3333333 0.7777778 1
-0.1111111 0.7777778 -1
-0.1111111 0.7777778 -0.7777778
-0.1111111 0.7777778 -0.5555556
-0.1111111 0.7777778 -0.3333333
-0.1111111 0.7777778 -0.1111111
-0.1111111 0.7777778 0.1111111
-0.1111111 0.7777778 0.3333333
-0.1111111 0.7777778 0.5555556
-0.1111111 0.7777778 0.7777778
-0.1111111 0.7777778 1
0.1111111 0.7777778 -1
0.1111111 0.7777778 -0.7777778
0.1111111 0.7777778 -0.5555556
0.1111111 0.7777778 -0.3333333
0.1111111 0.7777778 -0.1111111
0.1111111 0.7777778 0.1111111
0.1111111 0.7777778 0.3333333
0.1111111 0.7777778 0.5555556
0.1111111 0.7777778 0.7777778
0.1111111 0.7777778 1
0.3333333 0.7777778 -1
0.3333333 0.7777778 -0.7777778
0.3333333 0.7777778 -0.5555556
0.3333333 0.7777778 -0.3333333
0.3333333 0.7777778 -0.1111111
0.3333333 0.7777778 0.1111111
0.3333333 0.7777778 0.3333333
0.3333333 0.7777778 0.5555556
0.3333333 0.7777778 0.7777778
0.3333333 0.7777778 1
0.5555556 0.7777778 -1
0.5555556 0.7777778 -0.7777778
0.5555556 0.7777778 -0.5555556
0.5555556 0.7777778 -0.3333333
0.5555556 0.7777778 -0.1111111
0.5555556 0.7777778 0.1111111
0.5555556 0.7777778 0.3333333
0.5555556 0.7777778 0.5555556
0.5555556 0.7777778 0.7777778
0.5555556 0.7777778 1
0.7777778 0.7777778 -1
0.7777778 0.7777778 -0.7777778
0.7777778 0.7777778 -0.5555556
0.7777778 0.7777778 -0.3333333
0.7777778 0.7777778 -0.1111111
0.7777778 0.7777778 0.1111111
0.7777778 0.7777778 0.3333333
0.7777778 0.7777778 0.5555556
0.7777778 0.7777778 0.7777778
0.7777778 0.7777778 1
1 0.7777778 -1
1 0.7777778 -0.7777778
1 0.7777778 -0.5555556
1 0.7777778 -0.3333333
1 0.7777778 -0.1111111
1 0.7777778 0.1111111
1 0.7777778 0.3333333
1 0.7777778 0.5555556
1 0.7777778 0.7777778
1 0.7777778 1
-1 1 -1
-1 1 -0.7777778
-1 1 -0.5555556
-1 1 -0.3333333
-1 1 -0.1111111
-1 1 0.1111111
-1 1 0.3333333
-1 1 0.5555556
-1 1 0.7777778
-1 1 1
-0.7777778 1 -1
-0.7777778 1 -0.7777778
-0.7777778 1 -0.5555556
-0.7777778 1 -0.3333333
-0.7777778 1 -0.1111111
-0.7777778 1 0.1111111
-0.7777778 1 0.3333333
-0.7777778 1 0.5555556
-0.7777778 1 0.7777778
-0.7777778 1 1
-0.5555556 1 -1
-0.5555556 1 -0.7777778
-0.5555556 1 -0.5555556
-0.5555556 1 -0.3333333
-0.5555556 1 -0.1111111
-0.5555556 1 0.1111111
-0.5555556 1 0.3333333
-0.5555556 1 0.5555556
-0.5555556 1 0.7777778
-0.5555556 1 1
-0.3333333 1 -1
-0.3333333 1 -0.7777778
-0.3333333 1 -0.5555556
-0.3333333 1 -0.3333333
-0.3333333 1 -0.1111111
-0.3333333 1 0.1111111
-0.3333333 1 0.3333333
-0.3333333 1 0.5555556
-0.3333333 1 0.7777778
-0.3333333 1 1
-0.1111111 1 -1
-0.1111111 1 -0.7777778
-0.1111111 1 -0.5555556
-0.1111111 1 -0.3333333
-0.1111111 1 -0.1111111
-0.1111111 1 0.1111111
-0.1111111 1 0.3333333
-0.1111111 1 0.5555556
-0.1111111 1 0.7777778
-0.1111111 1 1
0.1111111 1 -1
0.1111111 1 -0.7777778
0.1111111 1 -0.5555556
0.1111111 1 -0.3333333
0.1111111 1 -0.1111111
0.1111111 1 0.1111111
0.1111111 1 0.3333333
0.1111111 1 0.5555556
0.1111111 1 0.7777778
0.1111111 1 1
0.3333333 1 -1
0.3333333 1 -0.7777778
0.3333333 1 -0.5555556
0.3333333 1 -0.3333333
0.3333333 1 -0.1111111
0.3333333 1 0.1111111
0.3333333 1 0.3333333
0.3333333 1 0.5555556
0.3333333 1 0.7777778
0.3333333 1 1
0.5555556 1 -1
0.5555556 1 -0.7777778
0.5555556 1 -0.5555556
0.5555556 1 -0.3333333
0.5555556 1 -0.1111111
0.5555556 1 0.1111111
0.5555556 1 0.3333333
0.5555556 1 0.5555556
0.5555556 1 0.7777778
0.5555556 1 1
0.7777778 1 -1
0.7777778 1 -0.7777778
0.7777778 1 -0.5555556
0.7777778 1 -0.3333333
0.7777778 1 -0.1111111
0.7777778 1 0.1111111
0.7777778 1 0.3333333
0.7777778 1 0.5555556
0.7777778 1 0.7777778
0.7777778 1 1
1 1 -1
1 1 -0.7777778
1 1 -0.5555556
1 1 -0.3333333
1 1 -0.1111111
1 1 0.1111111
1 1 0.3333333
1 1 0.5555556
1 1 0.7777778
1 1 1
